<svg width="158" height="44" viewBox="0 0 158 44" fill="none" xmlns="http://www.w3.org/2000/svg">
<g filter="url(#filter0_d_1730_320)">
<path d="M4 0H138.5C147.06 0 154 6.93959 154 15.5V36H19.5C10.9396 36 4 29.0604 4 20.5V0Z" fill="url(#paint0_linear_1730_320)"/>
</g>
<path d="M37.8093 23V13.2H42.0933C43.1573 13.2 44.0907 13.4053 44.8933 13.816C45.696 14.2267 46.3213 14.796 46.7693 15.524C47.2173 16.252 47.4413 17.1107 47.4413 18.1C47.4413 19.08 47.2173 19.9387 46.7693 20.676C46.3213 21.404 45.696 21.9733 44.8933 22.384C44.0907 22.7947 43.1573 23 42.0933 23H37.8093ZM39.6293 21.46H42.0093C42.7467 21.46 43.3813 21.32 43.9133 21.04C44.4547 20.76 44.87 20.368 45.1593 19.864C45.458 19.36 45.6073 18.772 45.6073 18.1C45.6073 17.4187 45.458 16.8307 45.1593 16.336C44.87 15.832 44.4547 15.44 43.9133 15.16C43.3813 14.88 42.7467 14.74 42.0093 14.74H39.6293V21.46ZM53.7577 23.14C52.9924 23.14 52.2877 23.014 51.6437 22.762C50.9997 22.51 50.4397 22.16 49.9637 21.712C49.4877 21.2547 49.1191 20.7227 48.8577 20.116C48.5964 19.5 48.4657 18.828 48.4657 18.1C48.4657 17.372 48.5964 16.7047 48.8577 16.098C49.1191 15.482 49.4877 14.95 49.9637 14.502C50.4397 14.0447 50.9997 13.69 51.6437 13.438C52.2877 13.186 52.9877 13.06 53.7437 13.06C54.5091 13.06 55.2091 13.186 55.8437 13.438C56.4877 13.69 57.0477 14.0447 57.5237 14.502C57.9997 14.95 58.3684 15.482 58.6297 16.098C58.8911 16.7047 59.0217 17.372 59.0217 18.1C59.0217 18.828 58.8911 19.5 58.6297 20.116C58.3684 20.732 57.9997 21.264 57.5237 21.712C57.0477 22.16 56.4877 22.51 55.8437 22.762C55.2091 23.014 54.5137 23.14 53.7577 23.14ZM53.7437 21.544C54.2384 21.544 54.6957 21.46 55.1157 21.292C55.5357 21.124 55.8997 20.886 56.2077 20.578C56.5157 20.2607 56.7537 19.8967 56.9217 19.486C57.0991 19.066 57.1877 18.604 57.1877 18.1C57.1877 17.596 57.0991 17.1387 56.9217 16.728C56.7537 16.308 56.5157 15.944 56.2077 15.636C55.8997 15.3187 55.5357 15.076 55.1157 14.908C54.6957 14.74 54.2384 14.656 53.7437 14.656C53.2491 14.656 52.7917 14.74 52.3717 14.908C51.9611 15.076 51.5971 15.3187 51.2797 15.636C50.9717 15.944 50.7291 16.308 50.5517 16.728C50.3837 17.1387 50.2997 17.596 50.2997 18.1C50.2997 18.5947 50.3837 19.052 50.5517 19.472C50.7291 19.892 50.9717 20.2607 51.2797 20.578C51.5877 20.886 51.9517 21.124 52.3717 21.292C52.7917 21.46 53.2491 21.544 53.7437 21.544ZM60.7409 23V13.2H62.2389L68.3849 20.746H67.6429V13.2H69.4489V23H67.9509L61.8049 15.454H62.5469V23H60.7409ZM70.4789 23L74.8889 13.2H76.6809L81.1049 23H79.2009L75.4069 14.166H76.1349L72.3549 23H70.4789ZM72.5089 20.732L72.9989 19.304H78.2909L78.7809 20.732H72.5089ZM84.4143 23L88.8243 13.2H90.6163L95.0403 23H93.1363L89.3423 14.166H90.0703L86.2903 23H84.4143ZM86.4443 20.732L86.9343 19.304H92.2263L92.7163 20.732H86.4443ZM100.532 23.14C99.7666 23.14 99.0619 23.014 98.4179 22.762C97.7739 22.51 97.2139 22.16 96.7379 21.712C96.2619 21.2547 95.8933 20.7227 95.6319 20.116C95.3706 19.5 95.2399 18.828 95.2399 18.1C95.2399 17.372 95.3706 16.7047 95.6319 16.098C95.8933 15.482 96.2619 14.95 96.7379 14.502C97.2139 14.0447 97.7739 13.69 98.4179 13.438C99.0619 13.186 99.7619 13.06 100.518 13.06C101.283 13.06 101.983 13.186 102.618 13.438C103.262 13.69 103.822 14.04 104.298 14.488C104.774 14.936 105.143 15.468 105.404 16.084C105.665 16.7 105.796 17.372 105.796 18.1C105.796 18.828 105.665 19.5 105.404 20.116C105.143 20.732 104.774 21.264 104.298 21.712C103.822 22.16 103.262 22.51 102.618 22.762C101.983 23.014 101.288 23.14 100.532 23.14ZM103.724 25.142C103.379 25.142 103.043 25.1 102.716 25.016C102.399 24.9413 102.081 24.8107 101.764 24.624C101.456 24.4467 101.134 24.2087 100.798 23.91C100.462 23.6207 100.093 23.2613 99.6919 22.832L101.624 22.328C101.885 22.6733 102.133 22.9487 102.366 23.154C102.609 23.3687 102.842 23.5227 103.066 23.616C103.29 23.7093 103.523 23.756 103.766 23.756C104.41 23.756 104.97 23.4947 105.446 22.972L106.286 23.98C105.633 24.7547 104.779 25.142 103.724 25.142ZM100.518 21.544C101.013 21.544 101.47 21.46 101.89 21.292C102.31 21.124 102.674 20.886 102.982 20.578C103.29 20.2607 103.528 19.892 103.696 19.472C103.873 19.052 103.962 18.5947 103.962 18.1C103.962 17.596 103.873 17.1387 103.696 16.728C103.528 16.308 103.29 15.944 102.982 15.636C102.674 15.3187 102.31 15.076 101.89 14.908C101.47 14.74 101.013 14.656 100.518 14.656C100.023 14.656 99.5659 14.74 99.1459 14.908C98.7259 15.076 98.3619 15.3187 98.0539 15.636C97.7459 15.944 97.5033 16.308 97.3259 16.728C97.1579 17.1387 97.0739 17.596 97.0739 18.1C97.0739 18.5947 97.1579 19.052 97.3259 19.472C97.5033 19.892 97.7459 20.2607 98.0539 20.578C98.3619 20.886 98.7259 21.124 99.1459 21.292C99.5659 21.46 100.023 21.544 100.518 21.544ZM111.729 23.14C110.385 23.14 109.33 22.762 108.565 22.006C107.809 21.25 107.431 20.158 107.431 18.73V13.2H109.251V18.66C109.251 19.668 109.466 20.4007 109.895 20.858C110.334 21.3153 110.95 21.544 111.743 21.544C112.536 21.544 113.148 21.3153 113.577 20.858C114.006 20.4007 114.221 19.668 114.221 18.66V13.2H116.013V18.73C116.013 20.158 115.63 21.25 114.865 22.006C114.109 22.762 113.064 23.14 111.729 23.14ZM118.352 23V13.2H120.172V23H118.352ZM118.086 12.402L119.976 10.484H122.034L119.598 12.402H118.086Z" fill="#E3ECEC"/>
<defs>
<filter id="filter0_d_1730_320" x="0" y="0" width="158" height="44" filterUnits="userSpaceOnUse" color-interpolation-filters="sRGB">
<feFlood flood-opacity="0" result="BackgroundImageFix"/>
<feColorMatrix in="SourceAlpha" type="matrix" values="0 0 0 0 0 0 0 0 0 0 0 0 0 0 0 0 0 0 127 0" result="hardAlpha"/>
<feOffset dy="4"/>
<feGaussianBlur stdDeviation="2"/>
<feComposite in2="hardAlpha" operator="out"/>
<feColorMatrix type="matrix" values="0 0 0 0 0 0 0 0 0 0 0 0 0 0 0 0 0 0 0.25 0"/>
<feBlend mode="normal" in2="BackgroundImageFix" result="effect1_dropShadow_1730_320"/>
<feBlend mode="normal" in="SourceGraphic" in2="effect1_dropShadow_1730_320" result="shape"/>
</filter>
<linearGradient id="paint0_linear_1730_320" x1="22.125" y1="28.4516" x2="144" y2="28.4516" gradientUnits="userSpaceOnUse">
<stop stop-color="#FF8E64"/>
<stop offset="0.541667" stop-color="#FF9D59"/>
<stop offset="1" stop-color="#FFA54F"/>
</linearGradient>
</defs>
</svg>
